<svg width="17" height="22" viewBox="0 0 17 22" fill="none" xmlns="http://www.w3.org/2000/svg">
<path d="M15.9846 16.1833C16.4236 16.7838 16.6602 17.5086 16.6602 18.253C16.6602 18.9974 16.4236 19.7221 15.9846 20.3223C15.8023 20.5863 15.5586 20.8016 15.275 20.9507C14.9914 21.0993 14.6759 21.1772 14.3557 21.1772C14.0355 21.1772 13.72 21.0993 13.4364 20.9507C13.1524 20.8016 12.9091 20.5863 12.7264 20.3223C12.29 19.7384 12.0545 19.0285 12.0552 18.2989L12.0264 18.3382L8.98632 14.4765L6.58933 11.4255L4.44935 8.7022C3.82773 8.91573 3.15395 8.92055 2.52975 8.71628C1.90517 8.51202 1.36416 8.10943 0.988082 7.56966C0.433765 6.84083 0.0920781 5.97262 0 5.06102C0.0251458 5.09439 0.047331 5.13035 0.0761747 5.16668C0.299159 5.48995 0.597219 5.75427 0.944454 5.93703C1.29169 6.11942 1.67812 6.21469 2.0701 6.21469C2.46245 6.21469 2.84852 6.11942 3.19575 5.93703C3.54298 5.75427 3.84104 5.48995 4.06403 5.16668C4.60134 4.43081 4.89125 3.54294 4.89125 2.63098C4.89125 1.71902 4.60134 0.831153 4.06403 0.0952812C4.03888 0.0622874 4.01263 0.0303988 3.98415 0C4.77292 0.16052 5.4744 0.607978 5.95328 1.25636C6.41219 1.87991 6.72985 2.59613 6.88405 3.35499C7.03862 4.11422 7.02567 4.8979 6.84706 5.65157L8.98706 8.37448L11.384 11.4255L14.4208 15.2872L14.3916 15.3276C14.704 15.341 15.0098 15.4248 15.2857 15.5731C15.5616 15.721 15.8005 15.9297 15.9846 16.1833Z" fill="#CCEFF6"/>
</svg>
